# xmcd
#
# Track frame offsets:
#	182
#	18932
#	39782
#	58607
#	77057
#	99182
#	120107
#	137882
#	155882
#	167657
#	181382
#
# Disc length: 2690 seconds
#
# Revision: 2
# Processed by: cddbd v1.5.1PL2 Copyright (c) Steve Scherf et al.
# Submitted via: EasyCDDAExtractor 8.2.2.1
#
DISCID=7d0a800b
DTITLE=Geoff Achison - Big Machine
DYEAR=1900
DGENRE=Blues
TTITLE0=Hold on to what you got
TTITLE1=Baby come back
TTITLE2=Big machine
TTITLE3=Broken hearted lover man
TTITLE4=Kissing angels
TTITLE5=I just want to make love to you
TTITLE6=Bandits
TTITLE7=Don't play guitar boy
TTITLE8=Plank spanker
TTITLE9=Broke my baby's heart
TTITLE10=Wish maker
EXTD=
EXTT0=
EXTT1=
EXTT2=
EXTT3=
EXTT4=
EXTT5=
EXTT6=
EXTT7=
EXTT8=
EXTT9=
EXTT10=
PLAYORDER=
